<svg width="32" height="32" viewBox="0 0 32 32" fill="none" xmlns="http://www.w3.org/2000/svg">
  <!-- Background circle with gradient -->
  <defs>
    <linearGradient id="gradient" x1="0%" y1="0%" x2="100%" y2="100%">
      <stop offset="0%" style="stop-color:#3B82F6;stop-opacity:1" />
      <stop offset="100%" style="stop-color:#10B981;stop-opacity:1" />
    </linearGradient>
  </defs>
  
  <!-- Main circle background -->
  <circle cx="16" cy="16" r="15" fill="url(#gradient)" stroke="#1F2937" stroke-width="1"/>
  
  <!-- Building/Company icon -->
  <path d="M8 24V12L16 6L24 12V24H8Z" fill="white" opacity="0.9"/>
  <rect x="12" y="16" width="2" height="4" fill="#1F2937"/>
  <rect x="18" y="16" width="2" height="4" fill="#1F2937"/>
  <rect x="14" y="20" width="4" height="2" fill="#1F2937"/>
  
  <!-- Leaf/Serenity symbol -->
  <path d="M16 4C16 4 14 6 12 8C10 10 8 12 8 14C8 16 10 18 12 20C14 22 16 24 16 24C16 24 18 22 20 20C22 18 24 16 24 14C24 12 22 10 20 8C18 6 16 4 16 4Z" fill="white" opacity="0.7"/>
</svg>
